<svg id="Layer_1" data-name="Layer 1" xmlns="http://www.w3.org/2000/svg" width="165" height="26.12" viewBox="0 0 165 26.12">
  <g id="Layer_2" data-name="Layer 2">
    <g id="Layer_1-2" data-name="Layer 1-2">
      <path d="M74.39,16.57A3.84,3.84,0,0,0,72,14.37a4.4,4.4,0,0,0-4.7,1.27,9.24,9.24,0,0,0-.82,1V9H62.28v.65h.12l1.17.18a.61.61,0,0,1,.47.55,11.18,11.18,0,0,1,.12,1.41V26.52h1.71s.11-.12.11-.18c.06-.41.18-.76.24-1.18,0,0,0-.11.06-.11a.21.21,0,0,1,.18.06,3.09,3.09,0,0,0,.4.41,4.78,4.78,0,0,0,7.68-2,9.17,9.17,0,0,0,.58-4.18A6.71,6.71,0,0,0,74.39,16.57Zm-1.53,4.54a7.92,7.92,0,0,1-.41,2.41,2.66,2.66,0,0,1-3.23,1.88,5.48,5.48,0,0,1-2.59-1.18.29.29,0,0,1-.12-.23V17.64a.7.7,0,0,1,.18-.48,4.51,4.51,0,0,1,2.53-1.59,2.76,2.76,0,0,1,2.41.55,3.26,3.26,0,0,1,.94,1.71A10,10,0,0,1,72.86,21.11Z" transform="translate(0 -6.94)" fill="#253858"/>
      <path d="M86.63,25.64c-.24,0-.42.06-.77.06s-.76-.3-.88-.83a8.14,8.14,0,0,1-.18-1.71V18a6.7,6.7,0,0,0-.06-1.1,2.92,2.92,0,0,0-1.41-2.2,4.18,4.18,0,0,0-1.88-.55,10.28,10.28,0,0,0-4.76.95.39.39,0,0,0-.12.24v2.06H78c0-.18.06-.29.06-.48a1.77,1.77,0,0,1,1.29-1.7,8.14,8.14,0,0,1,1.1-.18,1.81,1.81,0,0,1,1.94,1.36,9.6,9.6,0,0,1,.24,2.94h-.3c-.76,0-1.53.06-2.29.11a6.08,6.08,0,0,0-2.59.77,3.53,3.53,0,0,0-1.35,4.71A3.6,3.6,0,0,0,80,26.64a5.76,5.76,0,0,0,2.53-1.23c.23-.18.47-.42.71-.59l.17.47A1.88,1.88,0,0,0,85.1,26.7a6.37,6.37,0,0,0,1.06-.12c.58-.11.58-.11.55-.7C86.63,25.81,86.63,25.76,86.63,25.64Zm-3.94-1.06a5.13,5.13,0,0,1-1.84.76,2.31,2.31,0,0,1-2.67-1.89h0a2.89,2.89,0,0,1,0-.29,2.63,2.63,0,0,1,1.65-2.7A6.89,6.89,0,0,1,82.73,20c0,.18,0,.29.12.35v3.94A.33.33,0,0,1,82.69,24.58Z" transform="translate(0 -6.94)" fill="#253858"/>
      <path d="M122.85,25.64c-.76.17-1.17-.06-1.35-.83a6.53,6.53,0,0,1-.18-1.53V17.81a4.29,4.29,0,0,0-.06-.88,2.83,2.83,0,0,0-1.91-2.47,4.75,4.75,0,0,0-1.29-.3,10.39,10.39,0,0,0-4.79.93.39.39,0,0,0-.12.24v1.82c0,.06.06.12.06.18h1.47c0-.06,0-.12-.18-.24A2,2,0,0,1,116,15a2.51,2.51,0,0,1,1.94.06,1.94,1.94,0,0,1,1.1,1.77c.06.76.06,1.53.06,2.29l-.06.06h-.17c-.83,0-1.59.06-2.36.12a7.55,7.55,0,0,0-2.53.76,3.46,3.46,0,0,0-1.45,4.67h0a2.79,2.79,0,0,0,.16.28,3.54,3.54,0,0,0,3.71,1.47,5.12,5.12,0,0,0,2.52-1.24c.24-.17.48-.41.71-.58a3.48,3.48,0,0,1,.23.64,1.67,1.67,0,0,0,1.3,1.24,3.75,3.75,0,0,0,1.82-.18.13.13,0,0,0,.12-.11,2.8,2.8,0,0,0-.06-.71S122.91,25.64,122.85,25.64Zm-3.7-5.41v4.11a.35.35,0,0,1-.18.3,4.74,4.74,0,0,1-1.77.76,2.35,2.35,0,0,1-2.67-2,2.41,2.41,0,0,1,0-.38,2.74,2.74,0,0,1,1.88-2.65,7.35,7.35,0,0,1,2.75-.41Z" transform="translate(0 -6.94)" fill="#253858"/>
      <path d="M110.55,25.7a1.05,1.05,0,0,1-1.27-.77h0v-.11a5.58,5.58,0,0,1-.12-1c-.06-1.94-.06-3.88-.06-5.76a5.54,5.54,0,0,0-.06-1,2.88,2.88,0,0,0-2.29-2.75,4.78,4.78,0,0,0-2.06-.18,10,10,0,0,0-3.64.94.47.47,0,0,0-.13.24v1.88a.19.19,0,0,1,.07.12h1.41a2.81,2.81,0,0,1,0-.65,1.91,1.91,0,0,1,1-1.37,4,4,0,0,1,1.41-.3,1.85,1.85,0,0,1,1.89,1.36,9.92,9.92,0,0,1,.24,2.94c-.12,0-.18,0-.12.06-.65.06-1.3.06-2,.12a6.83,6.83,0,0,0-2.59.58,3.45,3.45,0,0,0,1.65,6.65,4.57,4.57,0,0,0,2.59-1.05,11.28,11.28,0,0,0,1-.83,2.21,2.21,0,0,0,1.24,1.77,3.1,3.1,0,0,0,2.2-.12,3.78,3.78,0,0,0-.06-.82A1.5,1.5,0,0,0,110.55,25.7Zm-3.65-5.5v4.11c0,.12-.06.18-.17.3a5.25,5.25,0,0,1-1.77.76,2.35,2.35,0,0,1-2.66-1.94l0-.32A2.75,2.75,0,0,1,104,20.46a6.9,6.9,0,0,1,2.88-.47Z" transform="translate(0 -6.94)" fill="#253858"/>
      <path d="M91.3,25.34c2.41-3.3,4.76-6.65,7.15-9.94a1.39,1.39,0,0,0,.24-1.06H88.86v2.6H90v-.82a2.81,2.81,0,0,1,.07-.65.47.47,0,0,1,.41-.35c.29,0,.59-.06.88-.06h4.76a.45.45,0,0,1-.11.17c-2.42,3.42-4.83,6.77-7.3,10.18a1.24,1.24,0,0,0-.23,1H99v-.82H91.15A.32.32,0,0,0,91.3,25.34Z" transform="translate(0 -6.94)" fill="#253858"/>
      <path d="M128,16.63v-2.2h-4.18V15c.55.12,1,.18,1.59.35a.61.61,0,0,1,.47.55,10.26,10.26,0,0,1,.12,1.36V23.7a8.45,8.45,0,0,1-.06,1.23.77.77,0,0,1-.71.71,8.2,8.2,0,0,0-1.1.11c-.06,0-.17.06-.17.12v.59h6.52v-.7a1.13,1.13,0,0,0-.41-.05,7.61,7.61,0,0,1-1.17-.12.75.75,0,0,1-.71-.77,9.23,9.23,0,0,1-.12-1.29c0-1.76.06-3.53,0-5.3a1.46,1.46,0,0,1,.3-1A3.19,3.19,0,0,1,130.69,16c.55,0,.59.06.7.58.07.3.07.71.12,1h1.18v-3.3C130.55,13.93,129.15,14.93,128,16.63Z" transform="translate(0 -6.94)" fill="#253858"/>
      <path d="M6.94,14.46A4.83,4.83,0,0,0,4.4,16.52c0,.05-.06.11-.12.17s0-.06-.06-.06v-2c0-.17-.06-.23-.23-.23H0s0,.06.12.12a1,1,0,0,0,.06.41c0,.11,0,.17.17.17s.55.06.83.12a1.08,1.08,0,0,1,.94.94c0,.3.06.71.06,1v13.6H4.3V25.11a0,0,0,0,1,0-.06h0a1,1,0,0,0,.24.29,5,5,0,0,0,2.75,1.3,4.24,4.24,0,0,0,4.23-2.24,8.66,8.66,0,0,0,1-3.59A8.55,8.55,0,0,0,12.1,17,3.88,3.88,0,0,0,6.94,14.46Zm3.11,8.82a3.47,3.47,0,0,1-.88,1.59,2.37,2.37,0,0,1-2,.59A5.83,5.83,0,0,1,4.4,24.28.32.32,0,0,1,4.22,24V17.57a.25.25,0,0,1,.12-.23,4.28,4.28,0,0,1,2.47-1.82,2.2,2.2,0,0,1,2.54.94,5.51,5.51,0,0,1,.89,2.25A10,10,0,0,1,10.05,23.28Z" transform="translate(0 -6.94)" fill="#0065ff"/>
      <path d="M22.11,14.93a5.77,5.77,0,0,0-3.59-.71,5.1,5.1,0,0,0-3.93,2.41,7.15,7.15,0,0,0-.89,5.5,5.53,5.53,0,0,0,5.59,4.54,1.29,1.29,0,0,1,.55,0c.06,0,.17,0,.24,0A5,5,0,0,0,24,24.08a7.29,7.29,0,0,0,.7-5.54A5.53,5.53,0,0,0,22.11,14.93Zm-.18,9.23a3.23,3.23,0,0,1-1.23,1.48,2.59,2.59,0,0,1-3.47-.55A5.61,5.61,0,0,1,16,22.38a9.06,9.06,0,0,1,.42-5.3,4.11,4.11,0,0,1,1.23-1.76,2.63,2.63,0,0,1,3.7.36h0l.13.17a5.72,5.72,0,0,1,1.17,2.88c.12.59.12,1.1.18,1.41A8.62,8.62,0,0,1,21.93,24.16Z" transform="translate(0 -6.94)" fill="#0065ff"/>
      <path d="M29.05,9.22c0-.18,0-.24-.24-.24H24.88v.61a4.36,4.36,0,0,0,1.35.06,1.1,1.1,0,0,1,.76.84,3.78,3.78,0,0,1,.12.82c0,2.2,0,4.3-.06,6.47,0,1.18-.06,2.3-.06,3.48,0,1.56,0,3.21,0,4.8v.24h1.92c.3,0,.3,0,.3-.3,0-2.88-.06-5.82-.06-8.77C29.05,14.59,29.05,11.93,29.05,9.22Z" transform="translate(0 -6.94)" fill="#0065ff"/>
      <path d="M59.58,14.16c-.19,0-.24,0-.3.18-.24.76-.47,1.53-.77,2.29-.94,2.31-1.94,4.51-3,6.77,0,0,0,.06-.12.12a1.42,1.42,0,0,0-.11-.24c-.94-2.29-1.94-4.64-2.88-6.94a3.76,3.76,0,0,1-.19-1.41v-.77H48.9c-.55,0-.47-.06-.47.47v.06s.06.12.11.12a1.71,1.71,0,0,1,1.36,1.06c.17.41.29.76.47,1.18,1.29,3,2.53,6,3.76,8.94a.49.49,0,0,1,0,.41,3.57,3.57,0,0,0-.35.83c-.24.59-.47,1.17-.71,1.7a1.74,1.74,0,0,1-.88.83,3.7,3.7,0,0,1-1.94.35c-.41,0-.82-.06-1.23-.06s-.36.06-.24.41c.18,0,.3.06.41.06.65,0,1.29.06,1.88.06a4.9,4.9,0,0,0,.94-.06,2,2,0,0,0,1.59-1.35c.88-1.83,1.71-3.77,2.59-5.65,1.1-2.59,2.35-5.24,3.53-7.83.24-.41.47-.82.7-1.29C60.1,14.4,59.81,14.46,59.58,14.16Z" transform="translate(0 -6.94)" fill="#0065ff"/>
      <path d="M47,14.69a11.87,11.87,0,0,0-4.06-.47A5.16,5.16,0,0,0,39,16.63a6.7,6.7,0,0,0-.59,6.3A5.41,5.41,0,0,0,42,26.4a7.85,7.85,0,0,0,5.06-.35c.06,0,.11-.12.11-.18v-.76a.44.44,0,0,0-.29.11,5.94,5.94,0,0,1-3.23.36,3.8,3.8,0,0,1-3.06-2.75,9.42,9.42,0,0,1-.43-3.65,6.93,6.93,0,0,1,.67-2.44,3,3,0,0,1,2.63-1.86,1.89,1.89,0,0,1,2.23,1.47,4.48,4.48,0,0,1,.19.94c0,.18.06.24.24.24H47a.16.16,0,0,0,.17-.14h0a0,0,0,0,0,0,0V14.88C47.16,14.81,47.11,14.75,47,14.69Z" transform="translate(0 -6.94)" fill="#0065ff"/>
      <path d="M32,14.46V15h.59a1.08,1.08,0,0,1,.47.07,1.06,1.06,0,0,1,.94.94c0,.29.06.58.06.82,0,1.29-.06,2.59-.06,3.85,0,1.71-.06,3.42-.06,5.12v.55h2.3c-.06-3.94-.06-7.94-.12-11.88Z" transform="translate(0 -6.94)" fill="#0065ff"/>
      <rect x="33.99" y="3.16" width="2.12" height="2.06" fill="#0065ff"/>
      <ellipse cx="151.94" cy="13.06" rx="13.06" ry="13.06" fill="#0065ff"/>
      <g>
        <path d="M151.35,22.43a3.09,3.09,0,0,1-.65.91,2.6,2.6,0,0,1-.84.55,1.81,1.81,0,0,1-1.37.12,1.33,1.33,0,0,1-.83-.81,1.49,1.49,0,0,1-.11-.72,1.34,1.34,0,0,1,.23-.64,2.52,2.52,0,0,1,.47-.51c.22-.15.45-.29.68-.42a8.36,8.36,0,0,0,1.34-.88l-.09-.21a1,1,0,0,0-.51-.61,1.47,1.47,0,0,0-1,.11,1.5,1.5,0,0,0-.76.55,1.28,1.28,0,0,0-.11.88l-.85.22a2.31,2.31,0,0,1,0-1,1.73,1.73,0,0,1,.53-.78,3.62,3.62,0,0,1,1-.62,3.3,3.3,0,0,1,1.07-.27,1.57,1.57,0,0,1,.71.13,1.54,1.54,0,0,1,.49.46,4.84,4.84,0,0,1,.34.73l.45,1.1a12.14,12.14,0,0,0,.65,1.42,1.85,1.85,0,0,0,.44.49l-.85.35A1.86,1.86,0,0,1,151.35,22.43Zm-.82-1.8a6.74,6.74,0,0,1-1.2.86,3.27,3.27,0,0,0-.65.45.78.78,0,0,0-.21.4.69.69,0,0,0,0,.45.74.74,0,0,0,.47.44,1.09,1.09,0,0,0,.81-.08,1.74,1.74,0,0,0,.76-.55,1.33,1.33,0,0,0,.3-.79,2.14,2.14,0,0,0-.21-.86Z" transform="translate(0 -6.94)" fill="#fff"/>
        <path d="M156.27,19.28l.88-.24a2.22,2.22,0,0,1-.27,1.45,2.37,2.37,0,0,1-1.21,1,2.32,2.32,0,0,1-1.93,0,2.76,2.76,0,0,1-1.39-1.57,2.83,2.83,0,0,1-.15-2.14,2.27,2.27,0,0,1,1.34-1.34,2.21,2.21,0,0,1,1.85,0,2.81,2.81,0,0,1,1.37,1.6l.09.22-3.59,1.47a2,2,0,0,0,1,1,1.51,1.51,0,0,0,1.18,0,1.44,1.44,0,0,0,.67-.55A1.84,1.84,0,0,0,156.27,19.28Zm-3.22-.21,2.68-1.1a1.74,1.74,0,0,0-.68-.79,1.34,1.34,0,0,0-1.2-.06,1.44,1.44,0,0,0-.8.77A1.71,1.71,0,0,0,153.05,19.07Z" transform="translate(0 -6.94)" fill="#fff"/>
      </g>
    </g>
  </g>
</svg>
