<svg width="52" height="34" viewBox="0 0 52 34" fill="none" xmlns="http://www.w3.org/2000/svg">
<path d="M49.0336 8.14331H35.8323C34.3224 8.14331 33.0913 9.37096 33.0913 10.8857V31.2537C33.0913 32.7669 34.3205 33.998 35.8323 33.998H49.0336C50.5468 33.998 51.7779 32.7688 51.7779 31.2537V10.8857C51.7779 9.37249 50.5487 8.14331 49.0336 8.14331V8.14331ZM42.4348 32.8844C41.8636 32.8844 41.4076 32.4236 41.4076 31.8554C41.4076 31.2858 41.8636 30.8283 42.4348 30.8283C43.0025 30.8283 43.4619 31.2861 43.4619 31.8554C43.4619 32.4217 43.0026 32.8844 42.4348 32.8844V32.8844ZM49.7203 28.5154C49.7203 29.2718 49.1074 29.8852 48.3505 29.8852H36.5226C35.7661 29.8852 35.1495 29.2722 35.1495 28.5154V12.1426C35.1495 11.3861 35.7657 10.7714 36.5226 10.7714H48.3505C49.107 10.7714 49.7203 11.3861 49.7203 12.1426V28.5154Z" fill="#293756"/>
<path d="M5.62444 26.1155V4.60797C5.62444 3.83811 6.24741 3.2133 7.02064 3.2133H37.7239C38.4971 3.2133 39.1201 3.83814 39.1201 4.60797V6.08615H42.4337L42.4341 3.49065C42.4341 1.56322 40.8708 0 38.9468 0H5.80119C3.87377 0 2.31055 1.56322 2.31055 3.49065V28.9017L31.0334 28.9013V26.1153L5.62444 26.1155Z" fill="#2A63F6"/>
<path d="M31.0325 30.2434H0V31.1837C0 32.7402 1.25934 33.9996 2.81588 33.9996H31.9043C31.36 33.2196 31.0341 32.2775 31.0341 31.2553V30.2434L31.0325 30.2434ZM24.7659 32.5284H19.9808C19.6117 32.5284 19.316 32.2313 19.316 31.8637C19.316 31.4961 19.6132 31.2004 19.9808 31.2004H24.7659C25.1316 31.2004 25.4306 31.4976 25.4306 31.8637C25.4325 32.2313 25.132 32.5284 24.7659 32.5284Z" fill="#2A63F6"/>
<path fill-rule="evenodd" clip-rule="evenodd" d="M26 21.6524L29.2965 18.3089L30.5326 19.5455L29.2965 20.7821H36.8963C38.3156 20.7821 39.4601 19.6371 39.4601 18.2172L39.4602 16L41.2 16L41.1999 18.2172C41.1999 20.5531 39.2312 22.5226 36.8962 22.5226H29.2963L30.5324 23.7134L29.2963 24.95L26 21.6524Z" fill="#2A63F6"/>
<path fill-rule="evenodd" clip-rule="evenodd" d="M15 16.7843C15 14.4494 16.9228 12.4806 19.3037 12.4806L26.9035 12.4806L25.6674 11.2445L26.9035 10.0542L30.2 13.3507L26.9035 16.6471L25.6674 15.4568L26.9035 14.2207L19.3037 14.2207C17.8844 14.2207 16.6941 15.3652 16.6941 16.7845L16.6943 19H15.0004L15 16.7843Z" fill="#293756"/>
<path d="M30.7925 8.1114C30.7955 8.10547 30.7977 8.09926 30.7992 8.09286C30.8006 8.08665 30.8014 8.08007 30.8014 8.07321C30.8014 8.05291 30.7957 8.03669 30.7843 8.02463C30.773 8.01277 30.7574 8.00684 30.7376 8.00684C30.7181 8.00684 30.7027 8.01277 30.6913 8.02463C30.6797 8.03669 30.6738 8.05291 30.6738 8.07321C30.6738 8.08007 30.6748 8.08665 30.6764 8.09286C30.6779 8.09926 30.6801 8.10547 30.6831 8.1114H30.7087C30.7045 8.10547 30.7015 8.09963 30.6998 8.09398C30.6978 8.08823 30.6968 8.0822 30.6968 8.07581C30.6968 8.06468 30.7005 8.05578 30.7079 8.04911C30.7152 8.04262 30.725 8.03947 30.7376 8.03947C30.7505 8.03947 30.7605 8.04262 30.7676 8.04911C30.7749 8.05578 30.7784 8.06468 30.7784 8.07581C30.7784 8.0822 30.7776 8.08823 30.7758 8.09398C30.7739 8.09963 30.7709 8.10547 30.7669 8.1114H30.7925Z" fill="#FFA756"/>
<path d="M30.7354 8.20532C30.7342 8.20281 30.7334 8.20022 30.7329 8.19753C30.7321 8.19503 30.7317 8.19253 30.7317 8.19011C30.7317 8.18242 30.7342 8.17649 30.7392 8.17232C30.7442 8.16833 30.751 8.16638 30.7599 8.16638H30.8026V8.13672H30.7102L30.7102 8.16638H30.7254C30.7195 8.17009 30.7152 8.17436 30.7125 8.17936C30.7095 8.18427 30.708 8.19021 30.708 8.19716C30.708 8.19809 30.7082 8.19911 30.7084 8.20013C30.7084 8.20133 30.7086 8.20309 30.7087 8.20532L30.7354 8.20532Z" fill="#FFA756"/>
<path d="M30.7562 8.31092H30.7647V8.24195C30.7717 8.24269 30.7769 8.2451 30.7803 8.24936C30.7838 8.25354 30.7855 8.25947 30.7855 8.26716C30.7855 8.27328 30.7847 8.27959 30.7829 8.28607C30.781 8.29275 30.7781 8.29952 30.7744 8.30647H30.797C30.7998 8.29952 30.8017 8.29247 30.8029 8.28533C30.8041 8.27838 30.8048 8.27143 30.8048 8.26457C30.8048 8.2477 30.8006 8.23472 30.7922 8.22563C30.7838 8.21646 30.772 8.21191 30.7566 8.21191C30.7416 8.21191 30.7297 8.21636 30.721 8.22526C30.7124 8.23435 30.708 8.24696 30.708 8.26309C30.708 8.27736 30.7125 8.28886 30.7214 8.29757C30.7301 8.30647 30.7417 8.31092 30.7562 8.31092L30.7562 8.31092ZM30.7462 8.28051C30.7408 8.28051 30.7364 8.27875 30.7329 8.27532C30.7294 8.27208 30.7277 8.2679 30.7277 8.26271C30.7277 8.25697 30.7293 8.25233 30.7325 8.24862C30.7357 8.2451 30.7403 8.24306 30.7462 8.24232L30.7462 8.28051Z" fill="#FFA756"/>
<path d="M30.761 8.37633C30.761 8.37012 30.7621 8.36539 30.7644 8.36224C30.7664 8.35927 30.7694 8.35779 30.7733 8.35779C30.777 8.35779 30.7799 8.359 30.7822 8.3615C30.7844 8.36391 30.7855 8.36743 30.7855 8.37188C30.7855 8.37726 30.7836 8.38189 30.7796 8.3856C30.7754 8.38949 30.7703 8.39153 30.7644 8.39153H30.761V8.37633ZM30.7499 8.4212H30.8026V8.39153H30.7888C30.7946 8.38755 30.7987 8.3831 30.8011 8.37818C30.8035 8.37318 30.8048 8.36715 30.8048 8.36001C30.8048 8.35056 30.8021 8.34296 30.7966 8.33702C30.791 8.33109 30.7837 8.32812 30.7748 8.32812C30.7642 8.32812 30.7564 8.33183 30.7514 8.33925C30.7462 8.34667 30.7436 8.35825 30.7436 8.37411V8.39153H30.741C30.7366 8.39153 30.7332 8.38968 30.731 8.38597C30.7288 8.38226 30.7277 8.37652 30.7277 8.36891C30.7277 8.36243 30.7283 8.35649 30.7295 8.35112C30.7308 8.34565 30.7327 8.34055 30.7351 8.33591H30.7128C30.7113 8.34231 30.7102 8.34861 30.7095 8.35482C30.7086 8.36122 30.708 8.36762 30.708 8.37411C30.708 8.39089 30.7113 8.40284 30.718 8.41007C30.7245 8.41749 30.7351 8.4212 30.7499 8.4212L30.7499 8.4212Z" fill="#FFA756"/>
<path d="M30.6807 8.47967H30.7066V8.51008H30.7278V8.47967H30.7671C30.7713 8.47967 30.7741 8.48051 30.7756 8.48227C30.7771 8.48394 30.7778 8.48728 30.7778 8.49228V8.50748H30.799V8.48227C30.799 8.47059 30.7966 8.46234 30.7919 8.45742C30.787 8.4527 30.7787 8.45038 30.7671 8.45038H30.7278V8.43555H30.7066V8.45038H30.6807L30.6807 8.47967Z" fill="#FFA756"/>
<path d="M30.7562 8.62122H30.7647V8.55225C30.7717 8.55299 30.7769 8.5554 30.7803 8.55967C30.7838 8.56384 30.7855 8.56977 30.7855 8.57747C30.7855 8.58358 30.7847 8.58989 30.7829 8.59638C30.781 8.60305 30.7781 8.60982 30.7744 8.61677H30.797C30.7998 8.60982 30.8017 8.60277 30.8029 8.59564C30.8041 8.58868 30.8048 8.58173 30.8048 8.57487C30.8048 8.558 30.8006 8.54502 30.7922 8.53594C30.7838 8.52676 30.772 8.52222 30.7566 8.52222C30.7416 8.52222 30.7297 8.52667 30.721 8.53557C30.7124 8.54465 30.708 8.55726 30.708 8.57339C30.708 8.58767 30.7125 8.59916 30.7214 8.60787C30.7301 8.61677 30.7417 8.62122 30.7562 8.62122L30.7562 8.62122ZM30.7462 8.59081C30.7408 8.59081 30.7364 8.58905 30.7329 8.58562C30.7294 8.58238 30.7277 8.57821 30.7277 8.57302C30.7277 8.56727 30.7293 8.56263 30.7325 8.55893C30.7357 8.5554 30.7403 8.55336 30.7462 8.55262L30.7462 8.59081Z" fill="#FFA756"/>
<path d="M30.7235 8.70545H30.6738V8.73475H30.8021V8.70545H30.7888C30.7942 8.70119 30.7982 8.69665 30.8006 8.69173C30.8031 8.68701 30.8044 8.68144 30.8044 8.67505C30.8044 8.66365 30.7999 8.65428 30.791 8.64687C30.7819 8.63945 30.7702 8.63574 30.7561 8.63574C30.7419 8.63574 30.7302 8.63945 30.7213 8.64687C30.7122 8.65428 30.7076 8.66365 30.7076 8.67505C30.7076 8.68117 30.709 8.68673 30.7116 8.69173C30.7142 8.69665 30.7181 8.70119 30.7235 8.70545H30.7235ZM30.7832 8.6858C30.7832 8.6922 30.7809 8.69702 30.7762 8.70026C30.7715 8.70369 30.7649 8.70545 30.7561 8.70545C30.7472 8.70545 30.7406 8.70369 30.7361 8.70026C30.7315 8.69702 30.7291 8.6922 30.7291 8.6858C30.7291 8.67959 30.7315 8.67477 30.7361 8.67134C30.7406 8.66809 30.7472 8.66652 30.7561 8.66652C30.7649 8.66652 30.7715 8.66809 30.7762 8.67134C30.7809 8.67477 30.7832 8.67959 30.7832 8.6858V8.6858Z" fill="#FFA756"/>
<path d="M30.7832 8.87158C30.7832 8.8777 30.7809 8.88243 30.7762 8.88567C30.7715 8.8891 30.7649 8.89086 30.7561 8.89086C30.7472 8.89086 30.7406 8.8891 30.7361 8.88567C30.7315 8.88243 30.7291 8.8777 30.7291 8.87158C30.7291 8.86509 30.7315 8.86018 30.7361 8.85675C30.7406 8.85351 30.7472 8.85193 30.7561 8.85193C30.7649 8.85193 30.7715 8.85351 30.7762 8.85675C30.7809 8.86018 30.7832 8.86509 30.7832 8.87158ZM30.7235 8.85193C30.7181 8.85582 30.7142 8.86027 30.7116 8.86528C30.709 8.87019 30.7076 8.87585 30.7076 8.88234C30.7076 8.89365 30.7122 8.90292 30.7213 8.91015C30.7302 8.91756 30.7419 8.92127 30.7561 8.92127C30.7702 8.92127 30.7819 8.91756 30.791 8.91015C30.7999 8.90292 30.8044 8.89365 30.8044 8.88234C30.8044 8.87585 30.8031 8.87019 30.8006 8.86528C30.7982 8.86027 30.7942 8.85582 30.7888 8.85193H30.8021V8.82227H30.6738V8.85193H30.7235Z" fill="#FFA756"/>
<path d="M30.708 8.93042V8.95971L30.7707 8.98456L30.708 9.00569V9.03499L30.8092 8.99643C30.8193 8.99244 30.8264 8.9879 30.8304 8.98271C30.8345 8.97751 30.8367 8.97065 30.8367 8.96231V8.94525H30.8174V8.95415C30.8174 8.95934 30.8165 8.96305 30.8148 8.96528C30.8133 8.9675 30.8104 8.96917 30.8063 8.97047L30.804 8.97121L30.708 8.93042Z" fill="#FFA756"/>
<path d="M30.7781 9.18653V9.13685L30.8004 9.12906V9.09717L30.6772 9.14278V9.1806L30.8004 9.22621V9.19432L30.7781 9.18653ZM30.7551 9.145V9.17875L30.7062 9.16169L30.7551 9.145Z" fill="#FFA756"/>
<path d="M30.7462 9.33342H30.8026V9.30376H30.7596C30.7517 9.30376 30.7462 9.30357 30.7432 9.30339C30.7401 9.30311 30.7379 9.30246 30.7366 9.30153C30.7346 9.30024 30.7331 9.29866 30.7321 9.29671C30.7309 9.29468 30.7303 9.29245 30.7303 9.29004C30.7303 9.28383 30.7328 9.27901 30.7377 9.27558C30.7424 9.27206 30.749 9.27039 30.7573 9.27039H30.8026V9.24072H30.7102L30.7102 9.27039H30.724C30.7186 9.27484 30.7146 9.27947 30.7121 9.28448C30.7094 9.28939 30.708 9.29495 30.708 9.30116C30.708 9.31173 30.7113 9.3198 30.718 9.32527C30.7245 9.33064 30.7339 9.33342 30.7462 9.33342L30.7462 9.33342Z" fill="#FFA756"/>
<path d="M30.7562 9.45447H30.7647V9.3855C30.7717 9.38624 30.7769 9.38865 30.7803 9.39292C30.7838 9.39709 30.7855 9.40302 30.7855 9.41072C30.7855 9.41684 30.7847 9.42314 30.7829 9.42963C30.781 9.4363 30.7781 9.44307 30.7744 9.45002H30.797C30.7998 9.44307 30.8017 9.43603 30.8029 9.42889C30.8041 9.42194 30.8048 9.41498 30.8048 9.40812C30.8048 9.39125 30.8006 9.37827 30.7922 9.36919C30.7838 9.36001 30.772 9.35547 30.7566 9.35547C30.7416 9.35547 30.7297 9.35992 30.721 9.36882C30.7124 9.3779 30.708 9.39051 30.708 9.40664C30.708 9.42092 30.7125 9.43241 30.7214 9.44113C30.7301 9.45002 30.7417 9.45447 30.7562 9.45447L30.7562 9.45447ZM30.7462 9.42407C30.7408 9.42407 30.7364 9.42231 30.7329 9.41888C30.7294 9.41563 30.7277 9.41146 30.7277 9.40627C30.7277 9.40052 30.7293 9.39589 30.7325 9.39218C30.7357 9.38865 30.7403 9.38662 30.7462 9.38587L30.7462 9.42407Z" fill="#FFA756"/>
<path d="M30.7132 9.54796H30.7354C30.733 9.54147 30.7312 9.53535 30.7299 9.52942C30.7284 9.52367 30.7277 9.51811 30.7277 9.51273C30.7277 9.50726 30.7284 9.50318 30.7299 9.50049C30.7312 9.49771 30.7332 9.49642 30.7362 9.49642C30.7387 9.49642 30.7405 9.49734 30.7418 9.49938C30.743 9.50133 30.7439 9.50504 30.7443 9.51051L30.7451 9.5157C30.7471 9.53071 30.7503 9.54091 30.7547 9.5461C30.7592 9.55129 30.7661 9.55389 30.7755 9.55389C30.7851 9.55389 30.7925 9.55027 30.7974 9.54314C30.8024 9.5359 30.8048 9.52506 30.8048 9.5105C30.8048 9.50457 30.8042 9.49827 30.8033 9.49159C30.8026 9.4851 30.8013 9.47843 30.7992 9.47157H30.7766C30.7796 9.4775 30.7818 9.48353 30.7833 9.48974C30.7848 9.49586 30.7855 9.50216 30.7855 9.50865C30.7855 9.51431 30.7848 9.51866 30.7833 9.52163C30.7816 9.5246 30.7791 9.52608 30.7759 9.52608C30.7732 9.52608 30.7712 9.52506 30.7699 9.52311C30.7687 9.52107 30.7677 9.51699 30.767 9.51088L30.7662 9.50568C30.7647 9.49252 30.7618 9.48344 30.7573 9.47825C30.7529 9.47306 30.7461 9.47046 30.7369 9.47046C30.7271 9.47046 30.7198 9.4738 30.7151 9.48047C30.7104 9.48715 30.708 9.49734 30.708 9.51125C30.708 9.51663 30.7086 9.52237 30.7095 9.52831C30.7102 9.53424 30.7115 9.54073 30.7132 9.54796L30.7132 9.54796Z" fill="#FFA756"/>
<path d="M30.7132 9.6503H30.7373C30.7346 9.64631 30.7327 9.64223 30.7314 9.63806C30.7299 9.63407 30.7291 9.63 30.7291 9.62582C30.7291 9.61767 30.7316 9.61118 30.7366 9.60654C30.7413 9.60181 30.748 9.5995 30.7566 9.5995C30.7653 9.5995 30.7721 9.60181 30.777 9.60654C30.7817 9.61118 30.784 9.61767 30.784 9.62582C30.784 9.63046 30.7833 9.63482 30.7818 9.6388C30.7803 9.64297 30.7784 9.64678 30.7759 9.6503H30.8C30.8017 9.64585 30.8029 9.64112 30.8037 9.63621C30.8044 9.63148 30.8048 9.62675 30.8048 9.62212C30.8048 9.60552 30.8006 9.59254 30.7922 9.58318C30.7836 9.57373 30.7717 9.56909 30.7566 9.56909C30.7413 9.56909 30.7294 9.57373 30.721 9.58318C30.7124 9.59255 30.708 9.60552 30.708 9.62212C30.708 9.62675 30.7086 9.63148 30.7095 9.63621C30.7102 9.64084 30.7115 9.64557 30.7132 9.6503L30.7132 9.6503Z" fill="#FFA756"/>
<path d="M30.6738 9.677V9.70667H30.7435L30.7098 9.74041V9.77489L30.7521 9.72966L30.8021 9.77823L30.8021 9.74264L30.7636 9.70667H30.8021V9.677L30.6738 9.677Z" fill="#FFA756"/>
<path d="M30.7458 9.88103H30.8021V9.85137H30.7591C30.7512 9.85137 30.7458 9.85118 30.7428 9.851C30.7396 9.85072 30.7374 9.85007 30.7361 9.84914C30.7342 9.84784 30.7327 9.84627 30.7317 9.84432C30.7305 9.84228 30.7298 9.84006 30.7298 9.83765C30.7298 9.83144 30.7323 9.82662 30.7372 9.82319C30.742 9.81966 30.7485 9.81799 30.7569 9.81799H30.8021V9.78833H30.6738V9.81799H30.7235C30.7181 9.82244 30.7142 9.82708 30.7117 9.83209C30.709 9.837 30.7076 9.84256 30.7076 9.84877C30.7076 9.85934 30.7109 9.8674 30.7176 9.87287C30.7241 9.87825 30.7334 9.88103 30.7458 9.88103L30.7458 9.88103Z" fill="#FFA756"/>
<path d="M30.761 9.95055C30.761 9.94434 30.7621 9.93961 30.7644 9.93646C30.7664 9.93349 30.7694 9.93201 30.7733 9.93201C30.777 9.93201 30.7799 9.93321 30.7822 9.93572C30.7844 9.93813 30.7855 9.94165 30.7855 9.9461C30.7855 9.95148 30.7836 9.95611 30.7796 9.95982C30.7754 9.96371 30.7703 9.96575 30.7644 9.96575H30.761V9.95055ZM30.7499 9.99542H30.8026V9.96575H30.7888C30.7946 9.96177 30.7987 9.95732 30.8011 9.9524C30.8035 9.9474 30.8048 9.94137 30.8048 9.93423C30.8048 9.92478 30.8021 9.91718 30.7966 9.91124C30.791 9.90531 30.7837 9.90234 30.7748 9.90234C30.7642 9.90234 30.7564 9.90605 30.7514 9.91347C30.7462 9.92088 30.7436 9.93247 30.7436 9.94832V9.96575H30.741C30.7366 9.96575 30.7332 9.9639 30.731 9.96019C30.7288 9.95648 30.7277 9.95074 30.7277 9.94313C30.7277 9.93664 30.7283 9.93071 30.7295 9.92533C30.7308 9.91987 30.7327 9.91477 30.7351 9.91013H30.7128C30.7113 9.91653 30.7102 9.92283 30.7095 9.92904C30.7086 9.93544 30.708 9.94184 30.708 9.94833C30.708 9.9651 30.7113 9.97706 30.718 9.98429C30.7245 9.99171 30.7351 9.99542 30.7499 9.99542L30.7499 9.99542Z" fill="#FFA756"/>
<path d="M30.8408 8.07279H30.8605V8.05647C30.8605 8.05221 30.8612 8.04924 30.8627 8.04757C30.8642 8.04609 30.8668 8.04535 30.8705 8.04535H30.8768V8.07056H30.8979V8.04535H30.9691V8.01568H30.8979V8.00122H30.8768V8.01568H30.8705C30.8604 8.01568 30.853 8.01846 30.8482 8.02421C30.8433 8.02987 30.8408 8.03849 30.8408 8.05017L30.8408 8.07279Z" fill="#FFA756"/>
<path d="M30.9015 8.15405C30.9003 8.15155 30.8994 8.14895 30.8989 8.14626C30.8981 8.14376 30.8978 8.14126 30.8978 8.13885C30.8978 8.13115 30.9003 8.12522 30.9052 8.12105C30.9102 8.11706 30.917 8.11511 30.9259 8.11511H30.9686V8.08545H30.8762L30.8762 8.11511H30.8915C30.8855 8.11882 30.8813 8.12309 30.8785 8.12809C30.8755 8.13301 30.874 8.13894 30.874 8.14589C30.874 8.14682 30.8742 8.14784 30.8744 8.14886C30.8744 8.15006 30.8746 8.15182 30.8748 8.15405L30.9015 8.15405Z" fill="#FFA756"/>
<path d="M30.8952 8.21242C30.8952 8.20575 30.8976 8.20065 30.9022 8.19722C30.9069 8.1937 30.9137 8.19203 30.9226 8.19203C30.9315 8.19203 30.9384 8.1937 30.943 8.19722C30.9477 8.20065 30.95 8.20575 30.95 8.21242C30.95 8.21882 30.9477 8.22364 30.943 8.22688C30.9384 8.23031 30.9315 8.23207 30.9226 8.23207C30.9137 8.23207 30.9069 8.23031 30.9022 8.22688C30.8976 8.22364 30.8952 8.21882 30.8952 8.21242ZM30.874 8.21242C30.874 8.22818 30.8784 8.2406 30.887 8.2495C30.8954 8.2584 30.9073 8.26285 30.9226 8.26285C30.9377 8.26285 30.9496 8.2584 30.9582 8.2495C30.9666 8.2406 30.9708 8.22818 30.9708 8.21242C30.9708 8.19629 30.9666 8.18387 30.9582 8.17497C30.9496 8.16607 30.9377 8.16162 30.9226 8.16162C30.9073 8.16162 30.8954 8.16607 30.887 8.17497C30.8784 8.18387 30.874 8.19629 30.874 8.21242Z" fill="#FFA756"/>
<path d="M30.8915 8.36935C30.8858 8.37306 30.8814 8.37732 30.8785 8.38233C30.8755 8.38752 30.874 8.39317 30.874 8.39938C30.874 8.40995 30.8774 8.41802 30.884 8.42349C30.8905 8.42914 30.8999 8.43201 30.9122 8.43201H30.9686V8.40235H30.9204H30.9182C30.9174 8.40253 30.9163 8.40272 30.9148 8.40272C30.9084 8.40272 30.9037 8.4017 30.9007 8.39975C30.8978 8.39771 30.8963 8.39466 30.8963 8.39048C30.8963 8.38474 30.8987 8.38029 30.9033 8.37713C30.9078 8.37417 30.9144 8.37268 30.9233 8.37268H30.9686V8.34302H30.9204C30.9103 8.34302 30.9037 8.34209 30.9007 8.34042C30.8978 8.33866 30.8963 8.3356 30.8963 8.33115C30.8963 8.32541 30.8987 8.32096 30.9033 8.31781C30.908 8.31484 30.9147 8.31336 30.9233 8.31336H30.9686V8.28369H30.8762V8.31336H30.89C30.8848 8.31679 30.8809 8.32086 30.8781 8.32559C30.8754 8.33023 30.874 8.33542 30.874 8.34117C30.874 8.34756 30.8757 8.35322 30.8788 8.35822C30.8818 8.36314 30.8861 8.36684 30.8915 8.36935L30.8915 8.36935Z" fill="#FFA756"/>
<path d="M30.8516 8.55096H30.8775V8.58137H30.8987V8.55096H30.938C30.9422 8.55096 30.945 8.5518 30.9465 8.55356C30.948 8.55523 30.9487 8.55856 30.9487 8.56357V8.57877H30.9699V8.55356C30.9699 8.54188 30.9675 8.53363 30.9628 8.52871C30.9579 8.52399 30.9496 8.52167 30.938 8.52167H30.8987V8.50684H30.8775V8.52167H30.8516L30.8516 8.55096Z" fill="#FFA756"/>
<path d="M30.9128 8.6928H30.9691V8.66313H30.9261C30.9182 8.66313 30.9128 8.66295 30.9098 8.66276C30.9066 8.66249 30.9044 8.66184 30.9031 8.66091C30.9012 8.65961 30.8997 8.65804 30.8987 8.65609C30.8975 8.65405 30.8968 8.65183 30.8968 8.64942C30.8968 8.6432 30.8993 8.63838 30.9042 8.63495C30.909 8.63143 30.9155 8.62976 30.9239 8.62976H30.9691V8.6001H30.8408V8.62976H30.8905C30.8851 8.63421 30.8811 8.63885 30.8786 8.64385C30.876 8.64877 30.8746 8.65433 30.8746 8.66054C30.8746 8.67111 30.8779 8.67917 30.8846 8.68464C30.8911 8.69002 30.9004 8.6928 30.9128 8.6928L30.9128 8.6928Z" fill="#FFA756"/>
<path d="M30.9222 8.81336H30.9308V8.74439C30.9377 8.74513 30.9429 8.74754 30.9463 8.75181C30.9499 8.75598 30.9515 8.76191 30.9515 8.7696C30.9515 8.77572 30.9507 8.78203 30.9489 8.78852C30.947 8.79519 30.9441 8.80196 30.9404 8.80891H30.963C30.9658 8.80196 30.9677 8.79491 30.9689 8.78777C30.9702 8.78082 30.9708 8.77387 30.9708 8.76701C30.9708 8.75014 30.9666 8.73716 30.9582 8.72808C30.9499 8.7189 30.938 8.71436 30.9226 8.71436C30.9076 8.71436 30.8957 8.71881 30.887 8.7277C30.8784 8.73679 30.874 8.7494 30.874 8.76553C30.874 8.7798 30.8785 8.7913 30.8874 8.80001C30.8961 8.80891 30.9077 8.81336 30.9222 8.81336L30.9222 8.81336ZM30.9122 8.78295C30.9068 8.78295 30.9024 8.78119 30.8989 8.77776C30.8954 8.77452 30.8937 8.77035 30.8937 8.76515C30.8937 8.75941 30.8953 8.75477 30.8985 8.75106C30.9017 8.74754 30.9063 8.7455 30.9122 8.74476L30.9122 8.78295Z" fill="#FFA756"/>
<path d="M30.8447 8.89551V8.93073L30.9293 8.9756H30.8447V9.00564H30.9678V8.97004L30.8833 8.92554H30.9678V8.89551H30.8447Z" fill="#FFA756"/>
<path d="M30.8952 9.07912C30.8952 9.07245 30.8976 9.06735 30.9022 9.06392C30.9069 9.06039 30.9137 9.05873 30.9226 9.05873C30.9315 9.05873 30.9384 9.06039 30.943 9.06392C30.9477 9.06735 30.95 9.07245 30.95 9.07912C30.95 9.08552 30.9477 9.09034 30.943 9.09358C30.9384 9.09701 30.9315 9.09877 30.9226 9.09877C30.9137 9.09877 30.9069 9.09701 30.9022 9.09358C30.8976 9.09034 30.8952 9.08552 30.8952 9.07912ZM30.874 9.07912C30.874 9.09488 30.8784 9.1073 30.887 9.1162C30.8954 9.1251 30.9073 9.12955 30.9226 9.12955C30.9377 9.12955 30.9496 9.1251 30.9582 9.1162C30.9666 9.1073 30.9708 9.09488 30.9708 9.07912C30.9708 9.06299 30.9666 9.05057 30.9582 9.04167C30.9496 9.03277 30.9377 9.02832 30.9226 9.02832C30.9073 9.02832 30.8954 9.03277 30.887 9.04167C30.8784 9.05057 30.874 9.06299 30.874 9.07912Z" fill="#FFA756"/>
<path d="M30.9353 9.14868H30.8789V9.17835H30.8882C30.8932 9.17835 30.8995 9.17816 30.9071 9.17798H30.9223C30.9297 9.17798 30.9351 9.17807 30.9382 9.17835C30.9415 9.17881 30.9438 9.17955 30.9453 9.18057C30.9473 9.18178 30.9488 9.18335 30.9497 9.18539C30.9508 9.18734 30.9512 9.18956 30.9512 9.19207C30.9512 9.19818 30.9489 9.203 30.9442 9.20653C30.9395 9.20996 30.933 9.21172 30.9245 9.21172H30.8789V9.24138H30.9712V9.21172H30.9579C30.9634 9.20727 30.9673 9.20254 30.9698 9.19763C30.9722 9.19262 30.9735 9.18725 30.9735 9.18131C30.9735 9.17065 30.9703 9.16249 30.9638 9.15684C30.9574 9.15137 30.9479 9.14868 30.9353 9.14868L30.9353 9.14868Z" fill="#FFA756"/>
<path d="M30.9122 9.3637H30.9686V9.33403H30.9256C30.9177 9.33403 30.9122 9.33385 30.9093 9.33366C30.9061 9.33338 30.9039 9.33274 30.9026 9.33181C30.9006 9.33051 30.8991 9.32893 30.8981 9.32699C30.8969 9.32495 30.8963 9.32272 30.8963 9.32031C30.8963 9.3141 30.8988 9.30928 30.9037 9.30585C30.9084 9.30233 30.915 9.30066 30.9233 9.30066H30.9686V9.271H30.8762L30.8762 9.30066H30.89C30.8846 9.30511 30.8806 9.30975 30.8781 9.31475C30.8754 9.31966 30.874 9.32523 30.874 9.33144C30.874 9.34201 30.8774 9.35007 30.884 9.35554C30.8905 9.36092 30.8999 9.3637 30.9122 9.3637L30.9122 9.3637Z" fill="#FFA756"/>
<path d="M30.8447 9.44946V9.50212C30.8447 9.51769 30.8483 9.52965 30.8555 9.53809C30.8624 9.54643 30.8722 9.55069 30.8848 9.55069C30.8979 9.55069 30.9079 9.54643 30.9148 9.53809C30.9218 9.52965 30.9252 9.51769 30.9252 9.50212V9.48098H30.9678V9.44946L30.8447 9.44946ZM30.8677 9.48098H30.9022V9.49878C30.9022 9.5049 30.9007 9.50963 30.8978 9.51287C30.8948 9.5163 30.8905 9.51806 30.8848 9.51806C30.8794 9.51806 30.8751 9.5163 30.8722 9.51287C30.8692 9.50963 30.8677 9.5049 30.8677 9.49878L30.8677 9.48098Z" fill="#FFA756"/>
<path d="M30.9015 9.64086C30.9003 9.63836 30.8994 9.63577 30.8989 9.63308C30.8981 9.63057 30.8978 9.62807 30.8978 9.62566C30.8978 9.61797 30.9003 9.61203 30.9052 9.60786C30.9102 9.60388 30.917 9.60193 30.9259 9.60193H30.9686V9.57227H30.8762L30.8762 9.60193H30.8915C30.8855 9.60564 30.8813 9.6099 30.8785 9.61491C30.8755 9.61982 30.874 9.62575 30.874 9.63271C30.874 9.63363 30.8742 9.63465 30.8744 9.63567C30.8744 9.63688 30.8746 9.63864 30.8748 9.64086L30.9015 9.64086Z" fill="#FFA756"/>
<path d="M30.8952 9.69875C30.8952 9.69207 30.8976 9.68698 30.9022 9.68355C30.9069 9.68002 30.9137 9.67835 30.9226 9.67835C30.9315 9.67835 30.9384 9.68002 30.943 9.68355C30.9477 9.68698 30.95 9.69207 30.95 9.69875C30.95 9.70515 30.9477 9.70997 30.943 9.71321C30.9384 9.71664 30.9315 9.7184 30.9226 9.7184C30.9137 9.7184 30.9069 9.71664 30.9022 9.71321C30.8976 9.70997 30.8952 9.70515 30.8952 9.69875ZM30.874 9.69875C30.874 9.71451 30.8784 9.72693 30.887 9.73583C30.8954 9.74473 30.9073 9.74918 30.9226 9.74918C30.9377 9.74918 30.9496 9.74473 30.9582 9.73583C30.9666 9.72693 30.9708 9.71451 30.9708 9.69875C30.9708 9.68262 30.9666 9.6702 30.9582 9.6613C30.9496 9.6524 30.9377 9.64795 30.9226 9.64795C30.9073 9.64795 30.8954 9.6524 30.887 9.6613C30.8784 9.6702 30.874 9.68262 30.874 9.69875Z" fill="#FFA756"/>
<path d="M30.8768 9.77185V9.80152H30.9676C30.98 9.80152 30.9893 9.79855 30.9958 9.79262C31.0022 9.78668 31.0055 9.77797 31.0055 9.76666V9.7522H30.9862V9.75739C30.9862 9.76277 30.9849 9.76647 30.9825 9.76851C30.98 9.77074 30.9751 9.77185 30.9676 9.77185L30.8768 9.77185ZM30.8408 9.77185V9.80152H30.8649V9.77185H30.8408Z" fill="#FFA756"/>
<path d="M30.9222 9.92078H30.9308V9.85181C30.9377 9.85255 30.9429 9.85496 30.9463 9.85923C30.9499 9.8634 30.9515 9.86933 30.9515 9.87703C30.9515 9.88314 30.9507 9.88945 30.9489 9.89594C30.947 9.90261 30.9441 9.90938 30.9404 9.91633H30.963C30.9658 9.90938 30.9677 9.90233 30.9689 9.8952C30.9702 9.88824 30.9708 9.88129 30.9708 9.87443C30.9708 9.85756 30.9666 9.84458 30.9582 9.8355C30.9499 9.82632 30.938 9.82178 30.9226 9.82178C30.9076 9.82178 30.8957 9.82623 30.887 9.83513C30.8784 9.84421 30.874 9.85682 30.874 9.87295C30.874 9.88723 30.8785 9.89872 30.8874 9.90743C30.8961 9.91633 30.9077 9.92078 30.9222 9.92078L30.9222 9.92078ZM30.9122 9.89038C30.9068 9.89038 30.9024 9.88861 30.8989 9.88518C30.8954 9.88194 30.8937 9.87777 30.8937 9.87258C30.8937 9.86683 30.8953 9.86219 30.8985 9.85849C30.9017 9.85496 30.9063 9.85292 30.9122 9.85218L30.9122 9.89038Z" fill="#FFA756"/>
<path d="M30.8792 10.0192H30.9033C30.9006 10.0152 30.8987 10.0111 30.8974 10.007C30.8959 10.003 30.8952 9.99889 30.8952 9.99472C30.8952 9.98656 30.8977 9.98007 30.9026 9.97544C30.9073 9.97071 30.914 9.96839 30.9226 9.96839C30.9313 9.96839 30.9381 9.97071 30.943 9.97544C30.9477 9.98007 30.95 9.98656 30.95 9.99472C30.95 9.99936 30.9493 10.0037 30.9478 10.0077C30.9463 10.0119 30.9444 10.0157 30.9419 10.0192H30.966C30.9677 10.0147 30.9689 10.01 30.9697 10.0051C30.9704 10.0004 30.9708 9.99565 30.9708 9.99101C30.9708 9.97442 30.9666 9.96144 30.9582 9.95208C30.9496 9.94262 30.9377 9.93799 30.9226 9.93799C30.9073 9.93799 30.8954 9.94262 30.887 9.95208C30.8784 9.96144 30.874 9.97442 30.874 9.99101C30.874 9.99565 30.8746 10.0004 30.8755 10.0051C30.8762 10.0097 30.8775 10.0145 30.8792 10.0192L30.8792 10.0192Z" fill="#FFA756"/>
<path d="M30.8516 10.0754H30.8775V10.1058H30.8987V10.0754H30.938C30.9422 10.0754 30.945 10.0762 30.9465 10.078C30.948 10.0796 30.9487 10.083 30.9487 10.088V10.1032H30.9699V10.078C30.9699 10.0663 30.9675 10.058 30.9628 10.0531C30.9579 10.0484 30.9496 10.0461 30.938 10.0461H30.8987V10.0312H30.8775V10.0461H30.8516L30.8516 10.0754Z" fill="#FFA756"/>
</svg>
